<svg xmlns="http://www.w3.org/2000/svg" width="200" height="200" viewBox="0 0 200 200">
  <g id="img_website_builder" transform="translate(-859 -4112)">
    <rect id="Rectangle_673" data-name="Rectangle 673" width="200" height="200" transform="translate(859 4112)" fill="none"/>
    <g id="Group_717" data-name="Group 717" transform="translate(1167.437 -2234.986)">
      <rect id="Rectangle_514" data-name="Rectangle 514" width="180.07" height="180.07" transform="translate(-304.442 6357.619)" fill="none"/>
      <g id="Group_360" data-name="Group 360" transform="translate(-308.437 6355.987)">
        <path id="Path_749" data-name="Path 749" d="M58.435,0a59.734,59.734,0,0,1,59.191,59.191,57.907,57.907,0,0,1-58.434,58.434A59.734,59.734,0,0,1,0,58.436,57.907,57.907,0,0,1,58.435,0Z" transform="translate(9.672 92.01) rotate(-45)" fill="#fff" opacity="0.24"/>
        <path id="Path_24" data-name="Path 24" d="M187.507,218.877a4.089,4.089,0,1,0,4.089,4.09A4.089,4.089,0,0,0,187.507,218.877Zm0,5.744a1.655,1.655,0,1,1,1.655-1.655A1.655,1.655,0,0,1,187.507,224.621Z" transform="translate(-154.137 -95.905)" fill="#fff" opacity="0.24"/>
        <path id="Path_25" data-name="Path 25" d="M304.254,236.507a4.089,4.089,0,1,0,4.089,4.089A4.089,4.089,0,0,0,304.254,236.507Zm0,5.744a1.655,1.655,0,1,1,1.655-1.656A1.656,1.656,0,0,1,304.254,242.251Z" transform="translate(-161.304 -96.987)" fill="#fff" opacity="0.24"/>
        <path id="Path_26" data-name="Path 26" d="M339.959,168.839a3.131,3.131,0,1,0,3.131,3.131A3.131,3.131,0,0,0,339.959,168.839Zm0,4.4a1.267,1.267,0,1,1,1.267-1.267A1.267,1.267,0,0,1,339.959,173.237Z" transform="translate(-163.554 -92.833)" fill="#fff" opacity="0.24"/>
        <path id="Path_27" data-name="Path 27" d="M281.211,115.477a3.31,3.31,0,1,0,3.31,3.31A3.31,3.31,0,0,0,281.211,115.477Zm0,4.651a1.34,1.34,0,1,1,1.339-1.34A1.34,1.34,0,0,1,281.211,120.128Z" transform="translate(-159.937 -89.557)" fill="#fff" opacity="0.24"/>
        <path id="Path_28" data-name="Path 28" d="M168.38,197.656a3.48,3.48,0,1,0,3.481,3.48A3.48,3.48,0,0,0,168.38,197.656Z" transform="translate(-153 -94.602)" fill="#fff" opacity="0.24"/>
        <path id="Path_29" data-name="Path 29" d="M317.218,209.931a2.531,2.531,0,1,0,2.531,2.531A2.531,2.531,0,0,0,317.218,209.931Z" transform="translate(-162.195 -95.356)" fill="#fff" opacity="0.24"/>
        <path id="Path_30" data-name="Path 30" d="M227.826,116.586a3.7,3.7,0,1,0,3.7,3.7A3.7,3.7,0,0,0,227.826,116.586Z" transform="translate(-156.636 -89.625)" fill="#fff" opacity="0.24"/>
        <path id="Path_31" data-name="Path 31" d="M248.995,259.374a2.7,2.7,0,1,0,2.7,2.7A2.7,2.7,0,0,0,248.995,259.374Z" transform="translate(-157.997 -98.391)" fill="#fff" opacity="0.24"/>
        <path id="Path_32" data-name="Path 32" d="M304.565,131.79a3.165,3.165,0,1,0,3.165,3.165A3.165,3.165,0,0,0,304.565,131.79Z" transform="translate(-161.379 -90.559)" fill="#fff" opacity="0.24"/>
        <path id="Path_33" data-name="Path 33" d="M341.128,152.026A3.073,3.073,0,1,0,344.2,155.1,3.073,3.073,0,0,0,341.128,152.026Z" transform="translate(-163.63 -91.801)" fill="#fff" opacity="0.24"/>
        <circle id="Ellipse_3" data-name="Ellipse 3" cx="1.961" cy="1.961" r="1.961" transform="translate(11.694 76.486)" fill="#fff" opacity="0.24"/>
        <path id="Path_34" data-name="Path 34" d="M254.284,109.379l1.231-1.231a1.1,1.1,0,1,0-1.551-1.552l-1.231,1.231L251.5,106.6a1.1,1.1,0,1,0-1.552,1.552l1.231,1.231-1.231,1.231a1.1,1.1,0,1,0,1.552,1.552l1.231-1.231,1.231,1.231a1.1,1.1,0,0,0,1.551-1.552Z" transform="translate(-158.201 -88.993)" fill="#fff" opacity="0.24"/>
        <path id="Path_35" data-name="Path 35" d="M164.971,149.029,166.2,147.8a1.1,1.1,0,0,0-1.552-1.552l-1.231,1.231-1.231-1.231a1.1,1.1,0,0,0-1.552,1.552l1.231,1.231-1.231,1.231a1.1,1.1,0,0,0,1.552,1.552l1.231-1.231,1.231,1.231a1.1,1.1,0,0,0,1.552-1.552Z" transform="translate(-152.718 -91.427)" fill="#fff" opacity="0.24"/>
        <path id="Path_36" data-name="Path 36" d="M319.765,229.177l1.044-1.043a.93.93,0,0,0-1.315-1.315l-1.043,1.043-1.043-1.043a.93.93,0,1,0-1.315,1.315l1.043,1.043-1.043,1.043a.93.93,0,0,0,1.315,1.315l1.043-1.043,1.043,1.043a.93.93,0,0,0,1.315-1.315Z" transform="translate(-162.265 -96.376)" fill="#fff" opacity="0.24"/>
        <g id="Group_8" data-name="Group 8" transform="translate(51.512 0)">
          <g id="Group_4" data-name="Group 4">
            <path id="Path_4" data-name="Path 4" d="M511.483,148.506l-.847.518-78.481,47.859-3.577-.626-1.366-.84a2.493,2.493,0,0,1,.948-1.163l81.275-46.924a.8.8,0,0,1,.7-.1l.373.348Z" transform="translate(-426.953 -147.187)" fill="#f5f5f5"/>
            <path id="Path_5" data-name="Path 5" d="M428.481,214.209l-1.366-.84a2.841,2.841,0,0,0-.259,1.138V284.32a1.063,1.063,0,0,0,.436.986l1.138,1.151.082-1.485,3.546-65.237Z" transform="translate(-426.857 -165.139)" fill="#e0e0e0"/>
            <path id="Path_6" data-name="Path 6" d="M510.962,148.955l-81.273,46.924a2.882,2.882,0,0,0-1.2,2.3v69.815c0,.886.539,1.294,1.2.909l81.273-46.924a2.883,2.883,0,0,0,1.2-2.3V149.865C512.166,148.979,511.627,148.571,510.962,148.955Z" transform="translate(-427.299 -147.628)" fill="#eee"/>
            <path id="Path_7" data-name="Path 7" d="M430.126,267.971c-.016.009-.029,0-.029-.021V198.135a.069.069,0,0,1,.029-.055L511.4,151.157c.016-.009.028,0,.028.022v69.815a.065.065,0,0,1-.028.054Z" transform="translate(-427.736 -148.263)" fill="#424242"/>
            <path id="Path_8" data-name="Path 8" d="M434,208.089v53.819l75.644-43.673V164.416Z" transform="translate(-428.794 -151.861)" fill="#4aa3ff"/>
            <path id="Path_9" data-name="Path 9" d="M486.355,188.054a1.739,1.739,0,0,1-.727,1.388c-.4.232-.727-.014-.727-.549a1.74,1.74,0,0,1,.727-1.388C486.029,187.274,486.355,187.519,486.355,188.054Z" transform="translate(-442.602 -158.1)" fill="#616161"/>
            <path id="Path_10" data-name="Path 10" d="M434,210.874v-2.786l75.644-43.673V167.2Z" transform="translate(-428.794 -151.861)" fill="#fafafa"/>
            <path id="Path_11" data-name="Path 11" d="M434,226.231v-2.786l4.183-2.415v2.786Z" transform="translate(-428.794 -167.217)" fill="#e0e0e0"/>
            <path id="Path_12" data-name="Path 12" d="M495.265,248.349l-29.837,17.226v5.876l29.837-17.226Z" transform="translate(-437.319 -174.627)" fill="#fff" style="mix-blend-mode: soft-light;isolation: isolate"/>
            <path id="Path_13" data-name="Path 13" d="M470.938,273.419l-2.858,1.65v-3.811l2.858-1.65Z" transform="translate(-438.039 -180.394)" fill="#ff9800"/>
            <path id="Path_14" data-name="Path 14" d="M476.224,270.367l-2.858,1.65v-3.811l2.858-1.65Z" transform="translate(-439.472 -179.566)" fill="#ef5350"/>
            <path id="Path_15" data-name="Path 15" d="M481.51,267.316l-2.858,1.65v-3.811l2.858-1.65Z" transform="translate(-440.906 -178.738)" fill="#4dd0e1"/>
            <path id="Path_16" data-name="Path 16" d="M486.8,264.264l-2.858,1.65V262.1l2.858-1.65Z" transform="translate(-442.34 -177.91)" fill="#ffca28"/>
            <path id="Path_17" data-name="Path 17" d="M492.082,261.212l-2.858,1.65v-3.811l2.858-1.65Z" transform="translate(-443.774 -177.083)" fill="#fff"/>
            <path id="Path_18" data-name="Path 18" d="M497.368,258.16l-2.858,1.65V256l2.858-1.65Z" transform="translate(-445.208 -176.255)" fill="#4dd0e1"/>
            <path id="Path_19" data-name="Path 19" d="M502.654,255.108l-2.858,1.65v-3.811l2.858-1.65Z" transform="translate(-446.642 -175.427)" fill="#ffca28"/>
            <path id="Path_20" data-name="Path 20" d="M533.422,178.566l-3.294,1.9v-4.392l3.294-1.9Z" transform="translate(-454.869 -154.507)" fill="#fafafa"/>
            <path id="Path_21" data-name="Path 21" d="M533.422,188.38l-3.294,1.9V185.89l3.294-1.9Z" transform="translate(-454.869 -157.17)" fill="#fafafa"/>
            <g id="Group_2" data-name="Group 2" transform="translate(46.332 33.006)">
              <path id="Path_22" data-name="Path 22" d="M516.189,218.677l-25.755,14.869v-26.2l25.755-14.869Z" transform="translate(-490.434 -192.478)" fill="#eee"/>
              <path id="Path_23" data-name="Path 23" d="M516.189,195.785l-25.755,14.87v-3.307l25.755-14.869Z" transform="translate(-490.434 -192.478)" fill="#ff9800"/>
              <path id="Path_24-2" data-name="Path 24" d="M495.289,212.343l-4.854,2.8v-3.307l4.854-2.8Z" transform="translate(-490.434 -196.969)" fill="#e06f24"/>
            </g>
            <g id="Group_3" data-name="Group 3" transform="translate(6.755 43.518)">
              <path id="Path_25-2" data-name="Path 25" d="M466.612,236.611l-30.486,17.6V224.5l30.486-17.6Z" transform="translate(-436.126 -206.903)" fill="#eee"/>
              <path id="Path_26-2" data-name="Path 26" d="M466.612,209.606,439.257,225.4l-3.131,1.807v-2.7l30.486-17.6Z" transform="translate(-436.126 -206.903)" fill="#ff9800"/>
              <path id="Path_27-2" data-name="Path 27" d="M440.093,230.615l-3.967,2.291v-2.7l3.967-2.291Z" transform="translate(-436.126 -212.602)" fill="#e06f24"/>
            </g>
          </g>
          <g id="Group_7" data-name="Group 7" transform="translate(3.076 75.334)">
            <g id="Group_6" data-name="Group 6">
              <path id="Path_28-2" data-name="Path 28" d="M493.705,352.323v4.427h-.063a3,3,0,0,1-1.47-.366l-60.461-34.906a1.067,1.067,0,0,1-.633-.855v-4.409l3.591,1.954,58.426,31.741Z" transform="translate(-431.078 -268.37)" fill="#e0e0e0"/>
              <path id="Path_29-2" data-name="Path 29" d="M599.8,299.926v4.413a.762.762,0,0,1-.447.646l-81.272,46.922a2.277,2.277,0,0,1-1.062.257v-12.1l75.574-40.374.714-.38Z" transform="translate(-454.389 -263.785)" fill="#eee"/>
              <path id="Path_30-2" data-name="Path 30" d="M512.8,250.821l-81.273,46.924c-.665.384-.582,1.055.186,1.5l60.462,34.907a2.881,2.881,0,0,0,2.593.107l81.274-46.923c.665-.384.582-1.054-.186-1.5l-60.462-34.907A2.885,2.885,0,0,0,512.8,250.821Z" transform="translate(-431.078 -250.562)" fill="#f5f5f5"/>
              <path id="Path_31-2" data-name="Path 31" d="M437.724,296.247l1.721.993a3.2,3.2,0,0,0,2.873.12l69.816-40.309c.737-.426.644-1.168-.206-1.659l-1.721-.993Z" transform="translate(-432.881 -251.603)" fill="#bdbdbd"/>
              <path id="Path_32-2" data-name="Path 32" d="M516.486,259.882l-69.265,39.99c-.441.254-.385.7.123.992l30.227,17.451a1.909,1.909,0,0,0,1.717.071l69.266-39.99c.44-.254.385-.7-.123-.992L518.2,259.954A1.908,1.908,0,0,0,516.486,259.882Z" transform="translate(-435.376 -253.043)" fill="#e0e0e0"/>
              <g id="Group_5" data-name="Group 5" transform="translate(14.759 8.521)">
                <path id="Path_33-2" data-name="Path 33" d="M456.332,311.443l-5,2.888,2.058,1.188,5-2.888Z" transform="translate(-451.331 -275.597)" fill="#616161"/>
                <path id="Path_34-2" data-name="Path 34" d="M460.273,314.679l-4.3,2.483,5.264,3.039,4.3-2.483Z" transform="translate(-452.59 -276.475)" fill="#616161"/>
                <path id="Path_35-2" data-name="Path 35" d="M469.853,315.227l4.3-2.483-5.264-3.039-4.3,2.483Z" transform="translate(-454.927 -275.126)" fill="#616161"/>
                <path id="Path_36-2" data-name="Path 36" d="M478.469,310.252l4.3-2.483L477.5,304.73l-4.3,2.483Z" transform="translate(-457.264 -273.776)" fill="#616161"/>
                <path id="Path_37" data-name="Path 37" d="M486.121,299.756l-4.3,2.483,5.264,3.039,4.3-2.482Z" transform="translate(-459.601 -272.427)" fill="#616161"/>
                <path id="Path_38" data-name="Path 38" d="M494.737,294.782l-4.3,2.483L495.7,300.3l4.3-2.483Z" transform="translate(-461.938 -271.078)" fill="#616161"/>
                <path id="Path_39" data-name="Path 39" d="M503.353,289.807l-4.3,2.483,5.264,3.039,4.3-2.483Z" transform="translate(-464.275 -269.728)" fill="#616161"/>
                <path id="Path_40" data-name="Path 40" d="M512.933,290.355l4.3-2.483-5.264-3.039-4.3,2.483Z" transform="translate(-466.612 -268.379)" fill="#616161"/>
                <path id="Path_41" data-name="Path 41" d="M521.549,285.38l4.3-2.483-5.264-3.039-4.3,2.483Z" transform="translate(-468.949 -267.03)" fill="#616161"/>
                <path id="Path_42" data-name="Path 42" d="M530.165,280.406l4.3-2.483-5.264-3.039-4.3,2.483Z" transform="translate(-471.286 -265.681)" fill="#616161"/>
                <path id="Path_43" data-name="Path 43" d="M538.781,274.082l10.579-6.108-5.264-3.039-10.579,6.108Z" transform="translate(-473.624 -262.982)" fill="#616161"/>
                <path id="Path_44" data-name="Path 44" d="M470.279,324.072l10.579-6.108-5.264-3.039-10.579,6.108Z" transform="translate(-455.043 -276.542)" fill="#616161"/>
                <path id="Path_45" data-name="Path 45" d="M487.511,315.473l4.3-2.483-5.264-3.039-4.3,2.483Z" transform="translate(-459.717 -275.192)" fill="#616161"/>
                <path id="Path_46" data-name="Path 46" d="M495.163,304.976l-4.3,2.483,5.264,3.039,4.3-2.483Z" transform="translate(-462.054 -273.843)" fill="#616161"/>
                <path id="Path_47" data-name="Path 47" d="M503.779,300l-4.3,2.483,5.264,3.039,4.3-2.483Z" transform="translate(-464.391 -272.494)" fill="#616161"/>
                <path id="Path_48" data-name="Path 48" d="M512.395,295.027l-4.3,2.483,5.264,3.039,4.3-2.482Z" transform="translate(-466.728 -271.144)" fill="#616161"/>
                <path id="Path_49" data-name="Path 49" d="M521.975,295.575l4.3-2.483-5.264-3.039-4.3,2.483Z" transform="translate(-469.065 -269.795)" fill="#616161"/>
                <path id="Path_50" data-name="Path 50" d="M530.591,290.6l4.3-2.483-5.264-3.039-4.3,2.483Z" transform="translate(-471.402 -268.446)" fill="#616161"/>
                <path id="Path_51" data-name="Path 51" d="M539.207,285.626l4.3-2.483-5.264-3.039-4.3,2.483Z" transform="translate(-473.739 -267.097)" fill="#616161"/>
                <path id="Path_52" data-name="Path 52" d="M478.357,325.12l-4.3,2.483,5.264,3.039,4.3-2.482Z" transform="translate(-457.495 -279.307)" fill="#616161"/>
                <path id="Path_53" data-name="Path 53" d="M487.937,325.668l4.3-2.483-5.264-3.039-4.3,2.483Z" transform="translate(-459.832 -277.958)" fill="#616161"/>
                <path id="Path_54" data-name="Path 54" d="M496.553,320.693l4.3-2.483-5.264-3.039-4.3,2.483Z" transform="translate(-462.169 -276.608)" fill="#616161"/>
                <path id="Path_55" data-name="Path 55" d="M504.2,310.2l-4.3,2.483,5.264,3.039,4.3-2.483Z" transform="translate(-464.506 -275.259)" fill="#616161"/>
                <path id="Path_56" data-name="Path 56" d="M512.82,305.222l-4.3,2.483,5.264,3.039,4.3-2.483Z" transform="translate(-466.843 -273.91)" fill="#616161"/>
                <path id="Path_57" data-name="Path 57" d="M521.437,300.248l-4.3,2.483,5.264,3.039,4.3-2.483Z" transform="translate(-469.181 -272.56)" fill="#616161"/>
                <path id="Path_58" data-name="Path 58" d="M531.017,300.8l4.3-2.483-5.264-3.039-4.3,2.483Z" transform="translate(-471.518 -271.211)" fill="#616161"/>
                <path id="Path_59" data-name="Path 59" d="M539.633,295.821l4.3-2.483-5.264-3.039-4.3,2.483Z" transform="translate(-473.855 -269.862)" fill="#616161"/>
                <path id="Path_60" data-name="Path 60" d="M548.249,290.847l4.3-2.483-5.264-3.039-4.3,2.483Z" transform="translate(-476.192 -268.513)" fill="#616161"/>
                <path id="Path_61" data-name="Path 61" d="M556.865,285.872l4.3-2.483L555.9,280.35l-4.3,2.483Z" transform="translate(-478.529 -267.163)" fill="#616161"/>
                <path id="Path_62" data-name="Path 62" d="M488.363,334.513l10.579-6.108-5.264-3.039L483.1,331.474Z" transform="translate(-459.948 -279.374)" fill="#616161"/>
                <path id="Path_63" data-name="Path 63" d="M505.595,325.914l4.3-2.483-5.264-3.039-4.3,2.483Z" transform="translate(-464.622 -278.024)" fill="#616161"/>
                <path id="Path_64" data-name="Path 64" d="M548.675,301.041l4.3-2.483-5.264-3.039L543.41,298Z" transform="translate(-476.307 -271.278)" fill="#616161"/>
                <path id="Path_65" data-name="Path 65" d="M557.291,296.067l4.3-2.483-5.264-3.039-4.3,2.483Z" transform="translate(-478.644 -269.929)" fill="#616161"/>
                <path id="Path_66" data-name="Path 66" d="M565.907,289.743l10.579-6.108-5.264-3.039L560.642,286.7Z" transform="translate(-480.981 -267.23)" fill="#616161"/>
                <path id="Path_67" data-name="Path 67" d="M514.211,316.891l23.137-13.358-5.264-3.039-23.137,13.358Z" transform="translate(-466.959 -272.627)" fill="#616161"/>
                <path id="Path_68" data-name="Path 68" d="M462.855,310.054l5-2.888-2.058-1.188-5,2.888Z" transform="translate(-453.899 -274.115)" fill="#616161"/>
                <path id="Path_69" data-name="Path 69" d="M472.321,304.588l5-2.888-2.058-1.188-5,2.888Z" transform="translate(-456.466 -272.632)" fill="#616161"/>
                <path id="Path_70" data-name="Path 70" d="M484.731,295.047l-5,2.888,2.058,1.188,5-2.888Z" transform="translate(-459.034 -271.15)" fill="#616161"/>
                <path id="Path_71" data-name="Path 71" d="M494.2,289.582l-5,2.888,2.058,1.188,5-2.888Z" transform="translate(-461.602 -269.667)" fill="#616161"/>
                <path id="Path_72" data-name="Path 72" d="M503.664,284.116l-5,2.888,2.058,1.188,5-2.888Z" transform="translate(-464.169 -268.185)" fill="#616161"/>
                <path id="Path_73" data-name="Path 73" d="M513.13,278.651l-5,2.888,2.058,1.188,5-2.888Z" transform="translate(-466.737 -266.702)" fill="#616161"/>
                <path id="Path_74" data-name="Path 74" d="M522.6,273.186l-5,2.888,2.058,1.188,5-2.888Z" transform="translate(-469.305 -265.22)" fill="#616161"/>
                <path id="Path_75" data-name="Path 75" d="M532.063,267.72l-5,2.888,2.058,1.188,5-2.888Z" transform="translate(-471.873 -263.737)" fill="#616161"/>
                <path id="Path_76" data-name="Path 76" d="M536.528,265.143l2.058,1.188,5-2.888-2.058-1.188Z" transform="translate(-474.44 -262.255)" fill="#616161"/>
                <path id="Path_77" data-name="Path 77" d="M547.823,279.3l6.279-3.625,6.589,3.8,4.3-2.483-11.854-6.844-10.579,6.108Z" transform="translate(-476.076 -264.398)" fill="#616161"/>
              </g>
              <path id="Path_78" data-name="Path 78" d="M470.623,337.374l4.786-2.763L443.342,316.1l-4.786,2.763Z" transform="translate(-433.106 -268.338)" fill="#eee"/>
              <path id="Path_79" data-name="Path 79" d="M576.654,276.157l4.786-2.763-32.068-18.514-4.786,2.763Z" transform="translate(-461.867 -251.733)" fill="#eee"/>
              <path id="Path_80" data-name="Path 80" d="M550.08,303.54l-27.242,15.728c-.6.347-.525.952.168,1.352l19.159,11.062a2.6,2.6,0,0,0,2.341.1l27.242-15.728c.6-.347.525-.952-.168-1.352l-19.159-11.062A2.6,2.6,0,0,0,550.08,303.54Z" transform="translate(-455.858 -264.869)" fill="#e0e0e0"/>
              <path id="Path_81" data-name="Path 81" d="M505.648,253.534l-69.421,40.081c-.4.23-.348.63.111.894l2.818,1.627a1.723,1.723,0,0,0,1.549.064l69.422-40.081c.4-.23.348-.63-.111-.894L507.2,253.6A1.724,1.724,0,0,0,505.648,253.534Z" transform="translate(-432.402 -251.326)" fill="#616161"/>
            </g>
            <path id="Path_82" data-name="Path 82" d="M440.06,325.971l-4.791-2.766v-2.6l4.791,2.766Z" transform="translate(-432.215 -269.561)" fill="#757575"/>
            <path id="Path_83" data-name="Path 83" d="M447.933,330.509l-4.791-2.766v-2.6l4.791,2.766Z" transform="translate(-434.35 -270.792)" fill="#757575"/>
            <path id="Path_84" data-name="Path 84" d="M462.469,338.459l-2.363-1.364v-1.282l2.363,1.364Z" transform="translate(-438.952 -273.686)" fill="#757575"/>
            <path id="Path_85" data-name="Path 85" d="M465.8,339.77c0,.329-.2.48-.447.338a1.072,1.072,0,0,1-.447-.853c0-.329.2-.48.447-.338A1.07,1.07,0,0,1,465.8,339.77Z" transform="translate(-440.253 -274.514)" fill="#757575"/>
          </g>
        </g>
        <g id="Group_10" data-name="Group 10" transform="translate(0 95.933)">
          <path id="Path_87" data-name="Path 87" d="M449.509,359.653v1.941a1.3,1.3,0,0,1-.758,1.108L406.33,387.2a3.9,3.9,0,0,1-1.978.433h0v-1.906l.3-.939,42.211-23.654Z" transform="translate(-341.104 -323.142)" fill="#eee"/>
          <path id="Path_88" data-name="Path 88" d="M380.809,381.82v1.906h0a5.045,5.045,0,0,1-2.386-.617l-59.786-34.515a1.793,1.793,0,0,1-1.068-1.429v-1.906l4.36.592,3.935.538Z" transform="translate(-317.563 -319.237)" fill="#e0e0e0"/>
          <path id="Path_89" data-name="Path 89" d="M424.9,344.687,365.11,310.169a4.856,4.856,0,0,0-4.37-.181L318.319,334.48c-1.119.647-.979,1.777.314,2.523l59.787,34.518a4.856,4.856,0,0,0,4.37.181l42.422-24.493C426.331,346.564,426.191,345.434,424.9,344.687Z" transform="translate(-317.563 -309.552)" fill="#eee"/>
          <path id="Path_90" data-name="Path 90" d="M384.985,370.223l-60.167-34.737,37.663-21.745,60.167,34.737Z" transform="translate(-319.531 -310.688)" fill="#4aa3ff"/>
          <path id="Path_91" data-name="Path 91" d="M422.555,336.191l-4.8-2.774a1.342,1.342,0,0,0-1.208-.05h0c-.31.179-.271.491.087.7l4.8,2.774a1.341,1.341,0,0,0,1.209.05h0C422.952,336.71,422.912,336.4,422.555,336.191Z" transform="translate(-344.354 -315.979)" fill="#e0e0e0"/>
          <path id="Path_92" data-name="Path 92" d="M363.941,369.658a3.534,3.534,0,0,1-3.182-.132c-.942-.544-1.044-1.366-.228-1.837a3.537,3.537,0,0,1,3.182.132C364.654,368.365,364.756,369.187,363.941,369.658Z" transform="translate(-329.068 -325.235)" fill="#e0e0e0"/>
        </g>
        <g id="Group_25" data-name="Group 25" transform="translate(24.109 78.732)">
          <path id="Path_105" data-name="Path 105" d="M400.563,350.855l-49.917-28.82V279.513l49.917,28.82Z" transform="translate(-350.646 -279.513)" fill="#eee"/>
          <g id="Group_24" data-name="Group 24" transform="translate(3.454 10.244)">
            <path id="Path_106" data-name="Path 106" d="M356.5,308.868l-1.117-.645v-1.292l1.117.645Z" transform="translate(-355.385 -297.195)" fill="#ff9800"/>
            <path id="Path_107" data-name="Path 107" d="M361.961,312.019l-4.207-2.429V308.3l4.207,2.429Z" transform="translate(-356.027 -297.566)" fill="#ff9800"/>
            <path id="Path_108" data-name="Path 108" d="M365.673,314.163l-1.117-.645v-1.292l1.117.645Z" transform="translate(-357.872 -298.631)" fill="#ff9800"/>
            <path id="Path_109" data-name="Path 109" d="M371.131,317.314l-4.207-2.429v-1.292l4.207,2.429Z" transform="translate(-358.515 -299.002)" fill="#ff9800"/>
            <path id="Path_110" data-name="Path 110" d="M374.843,319.457l-1.117-.645V317.52l1.117.645Z" transform="translate(-360.36 -300.067)" fill="#ff9800"/>
            <path id="Path_111" data-name="Path 111" d="M380.3,322.609,376.1,320.18v-1.292l4.207,2.429Z" transform="translate(-361.003 -300.438)" fill="#ff9800"/>
            <path id="Path_112" data-name="Path 112" d="M368.206,303.075l-12.821-7.4v-2.1l12.821,7.4Z" transform="translate(-355.385 -293.571)" fill="#ff9800"/>
            <path id="Path_113" data-name="Path 113" d="M363.387,304.6l-8-4.62v-2.1l8,4.62Z" transform="translate(-355.385 -294.738)" fill="#ff9800"/>
            <path id="Path_114" data-name="Path 114" d="M359.8,306.824l-4.41-2.546v-2.1l4.41,2.546Z" transform="translate(-355.385 -295.905)" fill="#ff9800"/>
            <path id="Path_115" data-name="Path 115" d="M356.5,329.442l-1.117-.645v-1.292l1.117.645Z" transform="translate(-355.385 -302.775)" fill="#ff9800"/>
            <path id="Path_116" data-name="Path 116" d="M361.961,332.593l-4.207-2.429v-1.292l4.207,2.429Z" transform="translate(-356.027 -303.146)" fill="#ff9800"/>
            <path id="Path_117" data-name="Path 117" d="M365.673,334.737l-1.117-.645V332.8l1.117.645Z" transform="translate(-357.872 -304.212)" fill="#ff9800"/>
            <path id="Path_118" data-name="Path 118" d="M371.131,337.888l-4.207-2.429v-1.292l4.207,2.429Z" transform="translate(-358.515 -304.583)" fill="#ff9800"/>
            <path id="Path_119" data-name="Path 119" d="M374.843,340.031l-1.117-.645v-1.292l1.117.645Z" transform="translate(-360.36 -305.648)" fill="#ff9800"/>
            <path id="Path_120" data-name="Path 120" d="M380.3,343.183l-4.207-2.429v-1.292l4.207,2.429Z" transform="translate(-361.003 -306.019)" fill="#ff9800"/>
            <path id="Path_121" data-name="Path 121" d="M363.794,321.1l-8.409-4.855v-2.1L363.794,319Z" transform="translate(-355.385 -299.151)" fill="#ff9800"/>
            <path id="Path_122" data-name="Path 122" d="M367.577,327.588l-12.192-7.039v-2.1l12.192,7.039Z" transform="translate(-355.385 -300.318)" fill="#ff9800"/>
            <path id="Path_123" data-name="Path 123" d="M361.8,328.553l-6.411-3.7v-2.1l6.411,3.7Z" transform="translate(-355.385 -301.485)" fill="#ff9800"/>
            <path id="Path_124" data-name="Path 124" d="M389.039,327.653l-1.117-.645v-1.292l1.117.645Z" transform="translate(-364.21 -302.29)" fill="#ff9800"/>
            <path id="Path_125" data-name="Path 125" d="M394.5,330.8l-4.207-2.429v-1.292l4.207,2.429Z" transform="translate(-364.853 -302.661)" fill="#ff9800"/>
            <path id="Path_126" data-name="Path 126" d="M398.209,332.947l-1.117-.645V331.01l1.117.645Z" transform="translate(-366.698 -303.726)" fill="#ff9800"/>
            <path id="Path_127" data-name="Path 127" d="M403.668,336.1l-4.207-2.429v-1.292l4.207,2.429Z" transform="translate(-367.34 -304.097)" fill="#ff9800"/>
            <path id="Path_128" data-name="Path 128" d="M407.379,338.242l-1.117-.645v-1.292l1.117.645Z" transform="translate(-369.185 -305.162)" fill="#ff9800"/>
            <path id="Path_129" data-name="Path 129" d="M412.838,341.393l-4.207-2.429v-1.292l4.207,2.429Z" transform="translate(-369.828 -305.533)" fill="#ff9800"/>
            <path id="Path_130" data-name="Path 130" d="M391.127,316.308l-3.205-1.851v-2.1l3.205,1.851Z" transform="translate(-364.21 -298.666)" fill="#ff9800"/>
            <path id="Path_131" data-name="Path 131" d="M398.434,324.83l-10.513-6.07v-2.1l10.513,6.07Z" transform="translate(-364.21 -299.833)" fill="#ff9800"/>
            <path id="Path_132" data-name="Path 132" d="M401.846,331.1l-13.925-8.039v-2.1L401.846,329Z" transform="translate(-364.21 -301)" fill="#ff9800"/>
          </g>
          <path id="Path_133" data-name="Path 133" d="M400.563,312.235l-49.917-28.82v-3.9l49.917,28.82Z" transform="translate(-350.646 -279.513)" fill="#fafafa"/>
          <path id="Path_134" data-name="Path 134" d="M355.826,286.406l-5.18-2.991v-3.9l5.18,2.991Z" transform="translate(-350.646 -279.513)" fill="#e0e0e0"/>
        </g>
      </g>
    </g>
  </g>
</svg>
